<svg xmlns="http://www.w3.org/2000/svg" xmlns:xlink="http://www.w3.org/1999/xlink" width="720" height="396" viewBox="0 0 720 396" role="img" aria-labelledby="atlas-title atlas-description"><title id="atlas-title">Guidance and feedback</title><desc id="atlas-description">How is the next action or reflection supported?</desc><rect width="720" height="396" fill="white"/><rect x="0" y="0" width="720" height="390" rx="0" fill="#ffffff" stroke="none" stroke-width="1.5"/>
<text x="28" y="34" fill="#a8501c" font-family="Arial, Helvetica, sans-serif" font-size="15" font-weight="700">
<tspan x="28" dy="0">FC-A4 / DESIGN FAMILY</tspan>
</text>
<rect x="119.5" y="76.4286" width="290.333" height="167.393" rx="8.66667" fill="#ffffff" stroke="#9ba7ab" stroke-width="1.6"/>
<line x1="141.167" y1="102.536" x2="388.167" y2="102.536" stroke="#9ba7ab" stroke-width="1.6"/>
<line x1="141.167" y1="117.893" x2="353.5" y2="117.893" stroke="#9ba7ab" stroke-width="1.6"/>
<rect x="143.333" y="153.214" width="188.5" height="27.6429" rx="8.66667" fill="#ffffff" stroke="#9ba7ab" stroke-width="1.6"/>
<circle cx="381.667" cy="167.036" r="10.75" fill="#faefe5" stroke="#a8501c" stroke-width="2"/>
<rect x="444.5" y="125.571" width="156" height="96.75" rx="8.66667" fill="#faefe5" stroke="#a8501c" stroke-width="2"/>
<line x1="396.833" y1="167.036" x2="442.333" y2="167.036" stroke="#a8501c" stroke-width="2"/>
<line x1="464" y1="148.607" x2="572.333" y2="148.607" stroke="#a8501c" stroke-width="2"/>
<line x1="464" y1="163.964" x2="557.167" y2="163.964" stroke="#a8501c" stroke-width="2"/>
<line x1="481.333" y1="191.607" x2="565.833" y2="191.607" stroke="#a8501c" stroke-width="2"/>
<line x1="565.833" y1="191.607" x2="553.316" y2="197.677" stroke="#a8501c" stroke-width="2"/>
<line x1="565.833" y1="191.607" x2="553.316" y2="185.537" stroke="#a8501c" stroke-width="2"/>
<text x="100" y="267" fill="#566574" font-family="Arial, Helvetica, sans-serif" font-size="19" font-weight="400">
<tspan x="100" dy="0">A next step attached to the work</tspan>
</text>
<text x="28" y="311" fill="#17232e" font-family="Arial, Helvetica, sans-serif" font-size="26" font-weight="700">
<tspan x="28" dy="0">Guidance and feedback</tspan>
</text>
<text x="28" y="350" fill="#17232e" font-family="Arial, Helvetica, sans-serif" font-size="19" font-weight="400">
<tspan x="28" dy="0">How is the next action or reflection supported?</tspan>
</text>
<text x="28" y="380" fill="#566574" font-family="Arial, Helvetica, sans-serif" font-size="13" font-weight="400">
<tspan x="28" dy="0">Conceptual schematic</tspan>
</text>
<a href="../../design-space-atlas.html#FC-A4" target="_top" aria-label="Guidance and feedback"><rect x="0" y="0" width="720" height="390" fill="transparent" pointer-events="all"/></a></svg>
