<svg xmlns="http://www.w3.org/2000/svg" xmlns:xlink="http://www.w3.org/1999/xlink" width="1008" height="1073" viewBox="0 0 1008 1073" role="img" aria-labelledby="atlas-title atlas-description"><title id="atlas-title">Semantic scaffolding design atlas</title><desc id="atlas-description">Eighteen interface schematics grouped into five design families. Orange highlights each illustrated operation. These are conceptual examples, not source screenshots or quantitative marks.</desc><rect width="1008" height="1073" fill="white"/><text x="24" y="35" fill="#17232e" font-family="Arial, Helvetica, sans-serif" font-size="29" font-weight="700">
<tspan x="24" dy="0">What does the interface make possible?</tspan>
</text>
<text x="24" y="67" fill="#566574" font-family="Arial, Helvetica, sans-serif" font-size="19" font-weight="400">
<tspan x="24" dy="0">Five design families · eighteen categories · 110 retained distinctions</tspan>
</text>
<g data-family="FC-A1" role="group" aria-label="Explanation and visibility">
<text x="24" y="115" fill="#17232e" font-family="Arial, Helvetica, sans-serif" font-size="23" font-weight="700">
<tspan x="24" dy="0">Explanation and visibility</tspan>
</text>
<text x="440" y="114" fill="#566574" font-family="Arial, Helvetica, sans-serif" font-size="19" font-weight="400">
<tspan x="440" dy="0">What can a person inspect and understand?</tspan>
</text>
<line x1="24" y1="129" x2="984" y2="129" stroke="#c8d1d9" stroke-width="1.2"/>
<line x1="24" y1="129" x2="94" y2="129" stroke="#a8501c" stroke-width="2.4"/>
<g data-category="FC-C01" data-schematic="explain" role="group" aria-label="Explaining system behaviour">
<title>Which aspect of the system is made inspectable?</title>
<rect x="24" y="136" width="226.5" height="145" rx="7" fill="#fdfcfb" stroke="#c8d1d9" stroke-width="0.8"/>
<rect x="59.0875" y="150.057" width="67.6" height="63.4857" rx="2.81667" fill="#ffffff" stroke="#9ba7ab" stroke-width="1.5"/>
<line x1="66.1292" y1="160.743" x2="119.646" y2="160.743" stroke="#9ba7ab" stroke-width="1.5"/>
<line x1="66.1292" y1="167.029" x2="108.379" y2="167.029" stroke="#9ba7ab" stroke-width="1.5"/>
<rect x="66.8333" y="176.457" width="50.7" height="11.3143" rx="2.81667" fill="#faefe5" stroke="#a8501c" stroke-width="2.4"/>
<line x1="126.688" y1="182.114" x2="141.475" y2="182.114" stroke="#a8501c" stroke-width="2.4"/>
<rect x="142.179" y="156.971" width="73.2333" height="47.7714" rx="2.81667" fill="#faefe5" stroke="#a8501c" stroke-width="2.4"/>
<rect x="151.333" y="166.4" width="42.9542" height="4.4" rx="2.81667" fill="#faefe5" stroke="#a8501c" stroke-width="2.4"/>
<rect x="151.333" y="177.086" width="28.8708" height="4.4" rx="2.81667" fill="#faefe5" stroke="#a8501c" stroke-width="2.4"/>
<rect x="151.333" y="187.771" width="17.6042" height="4.4" rx="2.81667" fill="#faefe5" stroke="#a8501c" stroke-width="2.4"/>
<circle cx="117.533" cy="182.114" r="2.51429" fill="#faefe5" stroke="#a8501c" stroke-width="2.4"/>
<text x="26" y="250" fill="#17232e" font-family="Arial, Helvetica, sans-serif" font-size="19" font-weight="700">
<tspan x="26" dy="0">Explaining system</tspan>
<tspan x="26" dy="23">behaviour</tspan>
</text>
<a href="../../design-space-atlas.html#FC-C01" target="_top" aria-label="Explaining system behaviour"><rect x="24" y="135" width="226.5" height="149" fill="transparent" pointer-events="all"/></a>
</g>
<g data-category="FC-C02" data-schematic="evidence" role="group" aria-label="Sources and evidence">
<title>How can a result be traced or checked?</title>
<rect x="268.5" y="136" width="226.5" height="145" rx="7" fill="#fdfcfb" stroke="#c8d1d9" stroke-width="0.8"/>
<rect x="302.883" y="156.971" width="67.6" height="48.4" rx="2.81667" fill="#ffffff" stroke="#9ba7ab" stroke-width="1.5"/>
<line x1="309.925" y1="167.657" x2="363.442" y2="167.657" stroke="#9ba7ab" stroke-width="1.5"/>
<line x1="309.925" y1="173.943" x2="352.175" y2="173.943" stroke="#9ba7ab" stroke-width="1.5"/>
<circle cx="353.583" cy="189.029" r="5.02857" fill="#faefe5" stroke="#a8501c" stroke-width="2.4"/>
<line x1="359.217" y1="189.029" x2="383.158" y2="189.029" stroke="#a8501c" stroke-width="2.4"/>
<line x1="383.158" y1="189.029" x2="383.158" y2="177.714" stroke="#a8501c" stroke-width="2.4"/>
<line x1="383.158" y1="177.714" x2="395.129" y2="177.714" stroke="#a8501c" stroke-width="2.4"/>
<rect x="396.538" y="145.657" width="62.6708" height="71.0286" rx="2.81667" fill="#ffffff" stroke="#9ba7ab" stroke-width="1.5"/>
<line x1="403.579" y1="156.343" x2="452.167" y2="156.343" stroke="#9ba7ab" stroke-width="1.5"/>
<line x1="403.579" y1="162.629" x2="440.9" y2="162.629" stroke="#9ba7ab" stroke-width="1.5"/>
<rect x="402.875" y="172.057" width="48.5875" height="12.5714" rx="2.81667" fill="#faefe5" stroke="#a8501c" stroke-width="2.4"/>
<line x1="402.875" y1="194.686" x2="449.35" y2="194.686" stroke="#9ba7ab" stroke-width="1.5"/>
<line x1="402.875" y1="200.971" x2="438.083" y2="200.971" stroke="#9ba7ab" stroke-width="1.5"/>
<line x1="402.875" y1="207.257" x2="449.35" y2="207.257" stroke="#9ba7ab" stroke-width="1.5"/>
<text x="270.5" y="250" fill="#17232e" font-family="Arial, Helvetica, sans-serif" font-size="19" font-weight="700">
<tspan x="270.5" dy="0">Sources and evidence</tspan>
</text>
<a href="../../design-space-atlas.html#FC-C02" target="_top" aria-label="Sources and evidence"><rect x="268.5" y="135" width="226.5" height="149" fill="transparent" pointer-events="all"/></a>
</g>
<g data-category="FC-C03" data-schematic="summarise" role="group" aria-label="Summarising and labelling content">
<title>How is content condensed, interpreted or recast?</title>
<rect x="513" y="136" width="226.5" height="145" rx="7" fill="#fdfcfb" stroke="#c8d1d9" stroke-width="0.8"/>
<rect x="547.383" y="145.657" width="52.1083" height="18.2286" rx="2.81667" fill="#ffffff" stroke="#9ba7ab" stroke-width="1.5"/>
<line x1="553.721" y1="152.571" x2="591.746" y2="152.571" stroke="#9ba7ab" stroke-width="1.5"/>
<line x1="553.721" y1="158.857" x2="580.479" y2="158.857" stroke="#9ba7ab" stroke-width="1.5"/>
<rect x="547.383" y="167.657" width="52.1083" height="18.2286" rx="2.81667" fill="#ffffff" stroke="#9ba7ab" stroke-width="1.5"/>
<line x1="553.721" y1="174.571" x2="591.746" y2="174.571" stroke="#9ba7ab" stroke-width="1.5"/>
<line x1="553.721" y1="180.857" x2="580.479" y2="180.857" stroke="#9ba7ab" stroke-width="1.5"/>
<rect x="547.383" y="189.657" width="52.1083" height="18.2286" rx="2.81667" fill="#ffffff" stroke="#9ba7ab" stroke-width="1.5"/>
<line x1="553.721" y1="196.571" x2="591.746" y2="196.571" stroke="#9ba7ab" stroke-width="1.5"/>
<line x1="553.721" y1="202.857" x2="580.479" y2="202.857" stroke="#9ba7ab" stroke-width="1.5"/>
<line x1="606.533" y1="178.343" x2="629.067" y2="178.343" stroke="#a8501c" stroke-width="2.4"/>
<line x1="629.067" y1="178.343" x2="624.998" y2="180.827" stroke="#a8501c" stroke-width="2.4"/>
<line x1="629.067" y1="178.343" x2="624.998" y2="175.858" stroke="#a8501c" stroke-width="2.4"/>
<rect x="638.925" y="159.486" width="66.1917" height="43.3714" rx="2.81667" fill="#faefe5" stroke="#a8501c" stroke-width="2.4"/>
<circle cx="647.375" cy="168.286" r="1.25714" fill="#faefe5" stroke="#a8501c" stroke-width="2.4"/>
<line x1="655.121" y1="168.286" x2="696.667" y2="168.286" stroke="#a8501c" stroke-width="2.4"/>
<circle cx="647.375" cy="180.229" r="1.25714" fill="#faefe5" stroke="#a8501c" stroke-width="2.4"/>
<line x1="655.121" y1="180.229" x2="691.033" y2="180.229" stroke="#a8501c" stroke-width="2.4"/>
<circle cx="647.375" cy="192.171" r="1.25714" fill="#faefe5" stroke="#a8501c" stroke-width="2.4"/>
<line x1="655.121" y1="192.171" x2="685.4" y2="192.171" stroke="#a8501c" stroke-width="2.4"/>
<text x="515" y="250" fill="#17232e" font-family="Arial, Helvetica, sans-serif" font-size="19" font-weight="700">
<tspan x="515" dy="0">Summarising and</tspan>
<tspan x="515" dy="23">labelling content</tspan>
</text>
<a href="../../design-space-atlas.html#FC-C03" target="_top" aria-label="Summarising and labelling content"><rect x="513" y="135" width="226.5" height="149" fill="transparent" pointer-events="all"/></a>
</g>
<g data-category="FC-C04" data-schematic="represent" role="group" aria-label="Visual and sensory representation">
<title>Through which form can a person perceive meaning?</title>
<rect x="757.5" y="136" width="226.5" height="145" rx="7" fill="#fdfcfb" stroke="#c8d1d9" stroke-width="0.8"/>
<rect x="792.587" y="157.6" width="45.0667" height="42.7429" rx="2.81667" fill="#ffffff" stroke="#9ba7ab" stroke-width="1.5"/>
<line x1="799.629" y1="168.286" x2="830.612" y2="168.286" stroke="#9ba7ab" stroke-width="1.5"/>
<line x1="799.629" y1="174.571" x2="819.346" y2="174.571" stroke="#9ba7ab" stroke-width="1.5"/>
<line x1="843.992" y1="180.229" x2="862.3" y2="180.229" stroke="#a8501c" stroke-width="2.4"/>
<line x1="862.3" y1="180.229" x2="858.232" y2="182.713" stroke="#a8501c" stroke-width="2.4"/>
<line x1="862.3" y1="180.229" x2="858.232" y2="177.744" stroke="#a8501c" stroke-width="2.4"/>
<line x1="884.129" y1="163.886" x2="916.521" y2="152.571" stroke="#a8501c" stroke-width="2.4"/>
<line x1="884.129" y1="163.886" x2="912.296" y2="186.514" stroke="#a8501c" stroke-width="2.4"/>
<line x1="912.296" y1="186.514" x2="939.054" y2="170.171" stroke="#a8501c" stroke-width="2.4"/>
<circle cx="884.129" cy="163.886" r="5.65714" fill="#faefe5" stroke="#a8501c" stroke-width="2.4"/>
<circle cx="916.521" cy="152.571" r="5.65714" fill="#faefe5" stroke="#a8501c" stroke-width="2.4"/>
<circle cx="912.296" cy="186.514" r="5.65714" fill="#faefe5" stroke="#a8501c" stroke-width="2.4"/>
<circle cx="939.054" cy="170.171" r="5.65714" fill="#faefe5" stroke="#a8501c" stroke-width="2.4"/>
<line x1="876.383" y1="207.886" x2="946.096" y2="207.886" stroke="#9ba7ab" stroke-width="1.5"/>
<line x1="878.496" y1="207.257" x2="878.496" y2="208.514" stroke="#a8501c" stroke-width="2.4"/>
<line x1="884.129" y1="205.371" x2="884.129" y2="210.4" stroke="#a8501c" stroke-width="2.4"/>
<line x1="889.763" y1="203.486" x2="889.763" y2="212.286" stroke="#a8501c" stroke-width="2.4"/>
<line x1="895.396" y1="201.6" x2="895.396" y2="214.171" stroke="#a8501c" stroke-width="2.4"/>
<line x1="901.029" y1="207.257" x2="901.029" y2="208.514" stroke="#a8501c" stroke-width="2.4"/>
<line x1="906.663" y1="205.371" x2="906.663" y2="210.4" stroke="#a8501c" stroke-width="2.4"/>
<line x1="912.296" y1="203.486" x2="912.296" y2="212.286" stroke="#a8501c" stroke-width="2.4"/>
<line x1="917.929" y1="201.6" x2="917.929" y2="214.171" stroke="#a8501c" stroke-width="2.4"/>
<line x1="923.562" y1="207.257" x2="923.562" y2="208.514" stroke="#a8501c" stroke-width="2.4"/>
<line x1="929.196" y1="205.371" x2="929.196" y2="210.4" stroke="#a8501c" stroke-width="2.4"/>
<line x1="934.829" y1="203.486" x2="934.829" y2="212.286" stroke="#a8501c" stroke-width="2.4"/>
<line x1="940.462" y1="201.6" x2="940.462" y2="214.171" stroke="#a8501c" stroke-width="2.4"/>
<text x="759.5" y="250" fill="#17232e" font-family="Arial, Helvetica, sans-serif" font-size="19" font-weight="700">
<tspan x="759.5" dy="0">Visual and sensory</tspan>
<tspan x="759.5" dy="23">representation</tspan>
</text>
<a href="../../design-space-atlas.html#FC-C04" target="_top" aria-label="Visual and sensory representation"><rect x="757.5" y="135" width="226.5" height="149" fill="transparent" pointer-events="all"/></a>
</g>
<a href="../../design-space-atlas.html#FC-A1" target="_top" aria-label="Explanation and visibility"><rect x="24" y="92" width="960" height="36" fill="transparent" pointer-events="all"/></a>
</g>
<g data-family="FC-A2" role="group" aria-label="Organisation and comparison">
<text x="24" y="319" fill="#17232e" font-family="Arial, Helvetica, sans-serif" font-size="23" font-weight="700">
<tspan x="24" dy="0">Organisation and comparison</tspan>
</text>
<text x="440" y="318" fill="#566574" font-family="Arial, Helvetica, sans-serif" font-size="19" font-weight="400">
<tspan x="440" dy="0">How can a person organise and compare material?</tspan>
</text>
<line x1="24" y1="333" x2="984" y2="333" stroke="#c8d1d9" stroke-width="1.2"/>
<line x1="24" y1="333" x2="94" y2="333" stroke="#a8501c" stroke-width="2.4"/>
<g data-category="FC-C05" data-schematic="organise" role="group" aria-label="Organising and structuring">
<title>Which relationships give material its structure?</title>
<rect x="24" y="340" width="226.5" height="145" rx="7" fill="#fdfcfb" stroke="#c8d1d9" stroke-width="0.8"/>
<rect x="59.0875" y="362.857" width="16.9" height="16.3429" rx="2.81667" fill="#ffffff" stroke="#9ba7ab" stroke-width="1.5"/>
<rect x="80.2125" y="356.571" width="16.9" height="16.3429" rx="2.81667" fill="#ffffff" stroke="#9ba7ab" stroke-width="1.5"/>
<rect x="64.7208" y="387.371" width="16.9" height="16.3429" rx="2.81667" fill="#ffffff" stroke="#9ba7ab" stroke-width="1.5"/>
<rect x="84.4375" y="395.543" width="16.9" height="16.3429" rx="2.81667" fill="#ffffff" stroke="#9ba7ab" stroke-width="1.5"/>
<line x1="107.675" y1="384.857" x2="126.688" y2="384.857" stroke="#a8501c" stroke-width="2.4"/>
<line x1="126.688" y1="384.857" x2="122.619" y2="387.342" stroke="#a8501c" stroke-width="2.4"/>
<line x1="126.688" y1="384.857" x2="122.619" y2="382.373" stroke="#a8501c" stroke-width="2.4"/>
<rect x="137.25" y="353.429" width="76.05" height="67.2571" rx="2.81667" fill="#ffffff" stroke="#9ba7ab" stroke-width="1.5"/>
<line x1="143.588" y1="381.086" x2="206.963" y2="381.086" stroke="#9ba7ab" stroke-width="1.5"/>
<rect x="144.996" y="360.971" width="23.2375" height="13.2" rx="2.81667" fill="#faefe5" stroke="#a8501c" stroke-width="2.4"/>
<rect x="174.571" y="360.971" width="23.2375" height="13.2" rx="2.81667" fill="#faefe5" stroke="#a8501c" stroke-width="2.4"/>
<rect x="144.996" y="391.771" width="23.2375" height="13.2" rx="2.81667" fill="#faefe5" stroke="#a8501c" stroke-width="2.4"/>
<rect x="174.571" y="391.771" width="23.2375" height="13.2" rx="2.81667" fill="#faefe5" stroke="#a8501c" stroke-width="2.4"/>
<line x1="156.262" y1="374.171" x2="156.262" y2="391.771" stroke="#a8501c" stroke-width="2.4"/>
<line x1="186.542" y1="374.171" x2="186.542" y2="391.771" stroke="#a8501c" stroke-width="2.4"/>
<text x="26" y="454" fill="#17232e" font-family="Arial, Helvetica, sans-serif" font-size="19" font-weight="700">
<tspan x="26" dy="0">Organising and</tspan>
<tspan x="26" dy="23">structuring</tspan>
</text>
<a href="../../design-space-atlas.html#FC-C05" target="_top" aria-label="Organising and structuring"><rect x="24" y="339" width="226.5" height="149" fill="transparent" pointer-events="all"/></a>
</g>
<g data-category="FC-C06" data-schematic="compare" role="group" aria-label="Comparing alternatives">
<title>What is placed in a common comparison frame?</title>
<rect x="268.5" y="340" width="226.5" height="145" rx="7" fill="#fdfcfb" stroke="#c8d1d9" stroke-width="0.8"/>
<rect x="304.996" y="351.543" width="152.804" height="69.7714" rx="2.81667" fill="#ffffff" stroke="#9ba7ab" stroke-width="1.5"/>
<line x1="352.879" y1="351.543" x2="352.879" y2="421.314" stroke="#9ba7ab" stroke-width="1.5"/>
<line x1="404.283" y1="351.543" x2="404.283" y2="421.314" stroke="#9ba7ab" stroke-width="1.5"/>
<line x1="304.996" y1="370.4" x2="457.8" y2="370.4" stroke="#9ba7ab" stroke-width="1.5"/>
<line x1="304.996" y1="387.371" x2="457.8" y2="387.371" stroke="#9ba7ab" stroke-width="1.5"/>
<line x1="304.996" y1="404.343" x2="457.8" y2="404.343" stroke="#9ba7ab" stroke-width="1.5"/>
<text x="366.258" y="364.743" fill="#17232e" font-family="Arial, Helvetica, sans-serif" font-size="19" font-weight="400">
<tspan x="366.258" dy="0">A</tspan>
</text>
<text x="419.071" y="364.743" fill="#17232e" font-family="Arial, Helvetica, sans-serif" font-size="19" font-weight="400">
<tspan x="419.071" dy="0">B</tspan>
</text>
<line x1="312.742" y1="378.571" x2="342.317" y2="378.571" stroke="#9ba7ab" stroke-width="1.5"/>
<line x1="312.742" y1="395.543" x2="342.317" y2="395.543" stroke="#9ba7ab" stroke-width="1.5"/>
<line x1="312.742" y1="412.514" x2="342.317" y2="412.514" stroke="#9ba7ab" stroke-width="1.5"/>
<rect x="357.808" y="374.171" width="42.25" height="10.0571" rx="2.81667" fill="#faefe5" stroke="#a8501c" stroke-width="2.4"/>
<line x1="413.438" y1="379.2" x2="447.238" y2="379.2" stroke="#9ba7ab" stroke-width="1.5"/>
<line x1="362.738" y1="395.543" x2="393.721" y2="395.543" stroke="#9ba7ab" stroke-width="1.5"/>
<rect x="409.212" y="390.514" width="43.6583" height="10.0571" rx="2.81667" fill="#faefe5" stroke="#a8501c" stroke-width="2.4"/>
<rect x="357.808" y="407.486" width="42.25" height="10.0571" rx="2.81667" fill="#faefe5" stroke="#a8501c" stroke-width="2.4"/>
<line x1="413.438" y1="412.514" x2="447.238" y2="412.514" stroke="#9ba7ab" stroke-width="1.5"/>
<text x="270.5" y="454" fill="#17232e" font-family="Arial, Helvetica, sans-serif" font-size="19" font-weight="700">
<tspan x="270.5" dy="0">Comparing alternatives</tspan>
</text>
<a href="../../design-space-atlas.html#FC-C06" target="_top" aria-label="Comparing alternatives"><rect x="268.5" y="339" width="226.5" height="149" fill="transparent" pointer-events="all"/></a>
</g>
<g data-category="FC-C07" data-schematic="search" role="group" aria-label="Search, filtering and ranking">
<title>How is relevant material found and brought into view?</title>
<rect x="513" y="340" width="226.5" height="145" rx="7" fill="#fdfcfb" stroke="#c8d1d9" stroke-width="0.8"/>
<rect x="548.087" y="350.914" width="154.917" height="17.6" rx="2.81667" fill="#ffffff" stroke="#9ba7ab" stroke-width="1.5"/>
<circle cx="558.65" cy="358.457" r="3.77143" fill="#faefe5" stroke="#a8501c" stroke-width="2.4"/>
<line x1="562.171" y1="361.6" x2="565.692" y2="364.743" stroke="#a8501c" stroke-width="2.4"/>
<line x1="574.142" y1="359.714" x2="643.854" y2="359.714" stroke="#9ba7ab" stroke-width="1.5"/>
<rect x="548.087" y="376.057" width="154.917" height="11.9429" rx="2.81667" fill="#faefe5" stroke="#a8501c" stroke-width="2.4"/>
<line x1="556.538" y1="382.343" x2="651.6" y2="382.343" stroke="#a8501c" stroke-width="2.4"/>
<line x1="672.021" y1="382.343" x2="693.146" y2="382.343" stroke="#9ba7ab" stroke-width="1.5"/>
<rect x="548.087" y="391.771" width="154.917" height="11.9429" rx="2.81667" fill="#ffffff" stroke="#9ba7ab" stroke-width="1.5"/>
<line x1="556.538" y1="398.057" x2="632.587" y2="398.057" stroke="#9ba7ab" stroke-width="1.5"/>
<line x1="672.021" y1="398.057" x2="688.217" y2="398.057" stroke="#9ba7ab" stroke-width="1.5"/>
<rect x="548.087" y="407.486" width="154.917" height="11.9429" rx="2.81667" fill="#ffffff" stroke="#9ba7ab" stroke-width="1.5"/>
<line x1="556.538" y1="413.771" x2="613.575" y2="413.771" stroke="#9ba7ab" stroke-width="1.5"/>
<line x1="672.021" y1="413.771" x2="683.288" y2="413.771" stroke="#9ba7ab" stroke-width="1.5"/>
<text x="515" y="454" fill="#17232e" font-family="Arial, Helvetica, sans-serif" font-size="19" font-weight="700">
<tspan x="515" dy="0">Search, filtering and</tspan>
<tspan x="515" dy="23">ranking</tspan>
</text>
<a href="../../design-space-atlas.html#FC-C07" target="_top" aria-label="Search, filtering and ranking"><rect x="513" y="339" width="226.5" height="149" fill="transparent" pointer-events="all"/></a>
</g>
<g data-category="FC-C08" data-schematic="remember" role="group" aria-label="Notes, history and memory">
<title>What is kept available for continuing the work?</title>
<rect x="757.5" y="340" width="226.5" height="145" rx="7" fill="#fdfcfb" stroke="#c8d1d9" stroke-width="0.8"/>
<rect x="791.883" y="352.171" width="56.3333" height="67.8857" rx="2.81667" fill="#ffffff" stroke="#9ba7ab" stroke-width="1.5"/>
<rect x="798.221" y="360.343" width="42.9542" height="15.0857" rx="2.81667" fill="#ffffff" stroke="#9ba7ab" stroke-width="1.5"/>
<rect x="798.221" y="382.343" width="42.9542" height="15.0857" rx="2.81667" fill="#faefe5" stroke="#a8501c" stroke-width="2.4"/>
<rect x="877.087" y="352.171" width="72.5292" height="67.8857" rx="2.81667" fill="#ffffff" stroke="#9ba7ab" stroke-width="1.5"/>
<line x1="884.129" y1="362.857" x2="942.575" y2="362.857" stroke="#9ba7ab" stroke-width="1.5"/>
<line x1="884.129" y1="369.143" x2="931.308" y2="369.143" stroke="#9ba7ab" stroke-width="1.5"/>
<rect x="886.242" y="394.914" width="54.2208" height="16.3429" rx="2.81667" fill="#faefe5" stroke="#a8501c" stroke-width="2.4"/>
<line x1="841.175" y1="389.886" x2="861.596" y2="389.886" stroke="#a8501c" stroke-width="2.4"/>
<line x1="861.596" y1="389.886" x2="861.596" y2="404.343" stroke="#a8501c" stroke-width="2.4"/>
<line x1="861.596" y1="404.343" x2="884.833" y2="404.343" stroke="#a8501c" stroke-width="2.4"/>
<line x1="884.833" y1="404.343" x2="880.765" y2="406.827" stroke="#a8501c" stroke-width="2.4"/>
<line x1="884.833" y1="404.343" x2="880.765" y2="401.858" stroke="#a8501c" stroke-width="2.4"/>
<circle cx="805.967" cy="403.714" r="1.25714" fill="#ffffff" stroke="#9ba7ab" stroke-width="1.5"/>
<circle cx="805.967" cy="409.371" r="1.25714" fill="#ffffff" stroke="#9ba7ab" stroke-width="1.5"/>
<circle cx="805.967" cy="415.029" r="1.25714" fill="#ffffff" stroke="#9ba7ab" stroke-width="1.5"/>
<text x="759.5" y="454" fill="#17232e" font-family="Arial, Helvetica, sans-serif" font-size="19" font-weight="700">
<tspan x="759.5" dy="0">Notes, history and</tspan>
<tspan x="759.5" dy="23">memory</tspan>
</text>
<a href="../../design-space-atlas.html#FC-C08" target="_top" aria-label="Notes, history and memory"><rect x="757.5" y="339" width="226.5" height="149" fill="transparent" pointer-events="all"/></a>
</g>
<a href="../../design-space-atlas.html#FC-A2" target="_top" aria-label="Organisation and comparison"><rect x="24" y="296" width="960" height="36" fill="transparent" pointer-events="all"/></a>
</g>
<g data-family="FC-A3" role="group" aria-label="User control and expression">
<text x="24" y="523" fill="#17232e" font-family="Arial, Helvetica, sans-serif" font-size="23" font-weight="700">
<tspan x="24" dy="0">User control and expression</tspan>
</text>
<text x="440" y="522" fill="#566574" font-family="Arial, Helvetica, sans-serif" font-size="19" font-weight="400">
<tspan x="440" dy="0">What can a person express, change or try?</tspan>
</text>
<line x1="24" y1="537" x2="984" y2="537" stroke="#c8d1d9" stroke-width="1.2"/>
<line x1="24" y1="537" x2="94" y2="537" stroke="#a8501c" stroke-width="2.4"/>
<g data-category="FC-C09" data-schematic="specify" role="group" aria-label="Goals and constraints">
<title>How does a person specify what the system should do?</title>
<rect x="24" y="544" width="226.5" height="145" rx="7" fill="#fdfcfb" stroke="#c8d1d9" stroke-width="0.8"/>
<rect x="59.0875" y="553.657" width="156.325" height="72.2857" rx="2.81667" fill="#ffffff" stroke="#9ba7ab" stroke-width="1.5"/>
<rect x="66.8333" y="561.2" width="140.129" height="17.6" rx="2.81667" fill="#faefe5" stroke="#a8501c" stroke-width="2.4"/>
<line x1="186.542" y1="565.6" x2="190.062" y2="576.286" stroke="#a8501c" stroke-width="2.4"/>
<line x1="190.062" y1="576.286" x2="192.879" y2="572.514" stroke="#a8501c" stroke-width="2.4"/>
<line x1="192.879" y1="572.514" x2="198.513" y2="571.257" stroke="#a8501c" stroke-width="2.4"/>
<line x1="198.513" y1="571.257" x2="186.542" y2="565.6" stroke="#a8501c" stroke-width="2.4"/>
<rect x="68.2417" y="588.857" width="7.74583" height="6.91429" rx="2.81667" fill="#faefe5" stroke="#a8501c" stroke-width="2.4"/>
<line x1="83.7333" y1="592" x2="140.067" y2="592" stroke="#9ba7ab" stroke-width="1.5"/>
<rect x="68.2417" y="599.543" width="7.74583" height="6.91429" rx="2.81667" fill="#faefe5" stroke="#a8501c" stroke-width="2.4"/>
<line x1="83.7333" y1="602.686" x2="156.262" y2="602.686" stroke="#9ba7ab" stroke-width="1.5"/>
<rect x="68.2417" y="610.229" width="7.74583" height="6.91429" rx="2.81667" fill="#faefe5" stroke="#a8501c" stroke-width="2.4"/>
<line x1="83.7333" y1="613.371" x2="172.458" y2="613.371" stroke="#9ba7ab" stroke-width="1.5"/>
<line x1="68.9458" y1="591.371" x2="71.7625" y2="593.886" stroke="#a8501c" stroke-width="2.4"/>
<line x1="71.7625" y1="593.886" x2="77.3958" y2="586.971" stroke="#a8501c" stroke-width="2.4"/>
<line x1="68.9458" y1="602.057" x2="71.7625" y2="604.571" stroke="#a8501c" stroke-width="2.4"/>
<line x1="71.7625" y1="604.571" x2="77.3958" y2="597.657" stroke="#a8501c" stroke-width="2.4"/>
<text x="26" y="658" fill="#17232e" font-family="Arial, Helvetica, sans-serif" font-size="19" font-weight="700">
<tspan x="26" dy="0">Goals and constraints</tspan>
</text>
<a href="../../design-space-atlas.html#FC-C09" target="_top" aria-label="Goals and constraints"><rect x="24" y="543" width="226.5" height="149" fill="transparent" pointer-events="all"/></a>
</g>
<g data-category="FC-C10" data-schematic="control" role="group" aria-label="Editing and steering">
<title>Where can a person intervene in the work?</title>
<rect x="268.5" y="544" width="226.5" height="145" rx="7" fill="#fdfcfb" stroke="#c8d1d9" stroke-width="0.8"/>
<rect x="304.292" y="554.286" width="154.213" height="69.7714" rx="2.81667" fill="#ffffff" stroke="#9ba7ab" stroke-width="1.5"/>
<line x1="311.333" y1="564.971" x2="451.462" y2="564.971" stroke="#9ba7ab" stroke-width="1.5"/>
<line x1="311.333" y1="571.257" x2="440.196" y2="571.257" stroke="#9ba7ab" stroke-width="1.5"/>
<rect x="312.742" y="579.429" width="136.608" height="13.8286" rx="2.81667" fill="#ffffff" stroke="#9ba7ab" stroke-width="1.5"/>
<line x1="319.783" y1="586.343" x2="417.663" y2="586.343" stroke="#9ba7ab" stroke-width="1.5"/>
<rect x="312.742" y="600.171" width="136.608" height="14.4571" rx="2.81667" fill="#faefe5" stroke="#a8501c" stroke-width="2.4"/>
<line x1="320.488" y1="607.714" x2="370.483" y2="607.714" stroke="#a8501c" stroke-width="2.4"/>
<line x1="374.004" y1="603.314" x2="374.004" y2="611.486" stroke="#a8501c" stroke-width="2.4"/>
<line x1="423.296" y1="603.314" x2="426.817" y2="614" stroke="#a8501c" stroke-width="2.4"/>
<line x1="426.817" y1="614" x2="429.633" y2="610.229" stroke="#a8501c" stroke-width="2.4"/>
<line x1="429.633" y1="610.229" x2="435.267" y2="608.971" stroke="#a8501c" stroke-width="2.4"/>
<line x1="435.267" y1="608.971" x2="423.296" y2="603.314" stroke="#a8501c" stroke-width="2.4"/>
<circle cx="440.196" cy="586.343" r="2.51429" fill="#ffffff" stroke="#9ba7ab" stroke-width="1.5"/>
<text x="270.5" y="658" fill="#17232e" font-family="Arial, Helvetica, sans-serif" font-size="19" font-weight="700">
<tspan x="270.5" dy="0">Editing and steering</tspan>
</text>
<a href="../../design-space-atlas.html#FC-C10" target="_top" aria-label="Editing and steering"><rect x="268.5" y="543" width="226.5" height="149" fill="transparent" pointer-events="all"/></a>
</g>
<g data-category="FC-C11" data-schematic="alternatives" role="group" aria-label="Generating and choosing alternatives">
<title>How are possibilities offered and shaped?</title>
<rect x="513" y="544" width="226.5" height="145" rx="7" fill="#fdfcfb" stroke="#c8d1d9" stroke-width="0.8"/>
<rect x="547.383" y="558.686" width="47.8833" height="63.4857" rx="2.81667" fill="#ffffff" stroke="#9ba7ab" stroke-width="1.5"/>
<line x1="553.721" y1="567.486" x2="588.225" y2="567.486" stroke="#9ba7ab" stroke-width="1.5"/>
<line x1="553.721" y1="573.771" x2="576.958" y2="573.771" stroke="#9ba7ab" stroke-width="1.5"/>
<rect x="554.425" y="590.114" width="33.8" height="11.9429" rx="2.81667" fill="#ffffff" stroke="#9ba7ab" stroke-width="1.5"/>
<line x1="558.65" y1="594.514" x2="574.846" y2="594.514" stroke="#9ba7ab" stroke-width="1.5"/>
<rect x="602.308" y="558.686" width="47.8833" height="63.4857" rx="2.81667" fill="#faefe5" stroke="#a8501c" stroke-width="2.4"/>
<line x1="608.646" y1="567.486" x2="643.15" y2="567.486" stroke="#9ba7ab" stroke-width="1.5"/>
<line x1="608.646" y1="573.771" x2="631.883" y2="573.771" stroke="#9ba7ab" stroke-width="1.5"/>
<rect x="609.35" y="590.114" width="33.8" height="11.9429" rx="2.81667" fill="#faefe5" stroke="#a8501c" stroke-width="2.4"/>
<line x1="613.575" y1="594.514" x2="626.25" y2="594.514" stroke="#a8501c" stroke-width="2.4"/>
<rect x="657.233" y="558.686" width="47.8833" height="63.4857" rx="2.81667" fill="#ffffff" stroke="#9ba7ab" stroke-width="1.5"/>
<line x1="663.571" y1="567.486" x2="698.075" y2="567.486" stroke="#9ba7ab" stroke-width="1.5"/>
<line x1="663.571" y1="573.771" x2="686.808" y2="573.771" stroke="#9ba7ab" stroke-width="1.5"/>
<rect x="664.275" y="590.114" width="33.8" height="11.9429" rx="2.81667" fill="#ffffff" stroke="#9ba7ab" stroke-width="1.5"/>
<line x1="668.5" y1="594.514" x2="677.654" y2="594.514" stroke="#9ba7ab" stroke-width="1.5"/>
<line x1="630.475" y1="612.743" x2="633.292" y2="615.257" stroke="#a8501c" stroke-width="2.4"/>
<line x1="633.292" y1="615.257" x2="638.925" y2="608.343" stroke="#a8501c" stroke-width="2.4"/>
<text x="515" y="658" fill="#17232e" font-family="Arial, Helvetica, sans-serif" font-size="19" font-weight="700">
<tspan x="515" dy="0">Generating and</tspan>
<tspan x="515" dy="23">choosing alternatives</tspan>
</text>
<a href="../../design-space-atlas.html#FC-C11" target="_top" aria-label="Generating and choosing alternatives"><rect x="513" y="543" width="226.5" height="149" fill="transparent" pointer-events="all"/></a>
</g>
<g data-category="FC-C12" data-schematic="simulate" role="group" aria-label="What-if exploration and rehearsal">
<title>What can be tried before acting in the real setting?</title>
<rect x="757.5" y="544" width="226.5" height="145" rx="7" fill="#fdfcfb" stroke="#c8d1d9" stroke-width="0.8"/>
<rect x="791.883" y="553.657" width="155.621" height="72.9143" rx="2.81667" fill="#ffffff" stroke="#9ba7ab" stroke-width="1.5"/>
<line x1="808.079" y1="603.943" x2="808.079" y2="565.6" stroke="#9ba7ab" stroke-width="1.5"/>
<line x1="808.079" y1="603.943" x2="934.829" y2="603.943" stroke="#9ba7ab" stroke-width="1.5"/>
<line x1="808.079" y1="598.914" x2="839.767" y2="590.114" stroke="#9ba7ab" stroke-width="1.5"/>
<line x1="839.767" y1="590.114" x2="873.567" y2="593.257" stroke="#9ba7ab" stroke-width="1.5"/>
<line x1="873.567" y1="593.257" x2="905.254" y2="576.286" stroke="#9ba7ab" stroke-width="1.5"/>
<line x1="905.254" y1="576.286" x2="934.829" y2="570" stroke="#9ba7ab" stroke-width="1.5"/>
<line x1="808.079" y1="598.914" x2="839.767" y2="590.114" stroke="#a8501c" stroke-width="2.4"/>
<line x1="839.767" y1="590.114" x2="873.567" y2="577.543" stroke="#a8501c" stroke-width="2.4"/>
<line x1="873.567" y1="577.543" x2="905.254" y2="571.886" stroke="#a8501c" stroke-width="2.4"/>
<line x1="905.254" y1="571.886" x2="934.829" y2="556.8" stroke="#a8501c" stroke-width="2.4"/>
<line x1="811.6" y1="617.143" x2="927.788" y2="617.143" stroke="#9ba7ab" stroke-width="1.5"/>
<circle cx="879.2" cy="617.143" r="3.77143" fill="#faefe5" stroke="#a8501c" stroke-width="2.4"/>
<text x="759.5" y="658" fill="#17232e" font-family="Arial, Helvetica, sans-serif" font-size="19" font-weight="700">
<tspan x="759.5" dy="0">What-if exploration and</tspan>
<tspan x="759.5" dy="23">rehearsal</tspan>
</text>
<a href="../../design-space-atlas.html#FC-C12" target="_top" aria-label="What-if exploration and rehearsal"><rect x="757.5" y="543" width="226.5" height="149" fill="transparent" pointer-events="all"/></a>
</g>
<a href="../../design-space-atlas.html#FC-A3" target="_top" aria-label="User control and expression"><rect x="24" y="500" width="960" height="36" fill="transparent" pointer-events="all"/></a>
</g>
<g data-family="FC-A4" role="group" aria-label="Guidance and feedback">
<text x="24" y="727" fill="#17232e" font-family="Arial, Helvetica, sans-serif" font-size="23" font-weight="700">
<tspan x="24" dy="0">Guidance and feedback</tspan>
</text>
<text x="440" y="726" fill="#566574" font-family="Arial, Helvetica, sans-serif" font-size="19" font-weight="400">
<tspan x="440" dy="0">How is the next action or reflection supported?</tspan>
</text>
<line x1="24" y1="741" x2="984" y2="741" stroke="#c8d1d9" stroke-width="1.2"/>
<line x1="24" y1="741" x2="94" y2="741" stroke="#a8501c" stroke-width="2.4"/>
<g data-category="FC-C13" data-schematic="guide" role="group" aria-label="Recommendations and guidance">
<title>What helps a person decide where to look or what to do?</title>
<rect x="24" y="748" width="177.6" height="145" rx="7" fill="#fdfcfb" stroke="#c8d1d9" stroke-width="0.8"/>
<rect x="34.6375" y="759.543" width="94.3583" height="68.5143" rx="2.81667" fill="#ffffff" stroke="#9ba7ab" stroke-width="1.5"/>
<line x1="41.6792" y1="770.229" x2="121.954" y2="770.229" stroke="#9ba7ab" stroke-width="1.5"/>
<line x1="41.6792" y1="776.514" x2="110.688" y2="776.514" stroke="#9ba7ab" stroke-width="1.5"/>
<rect x="42.3833" y="790.971" width="61.2625" height="11.3143" rx="2.81667" fill="#ffffff" stroke="#9ba7ab" stroke-width="1.5"/>
<circle cx="119.842" cy="796.629" r="4.4" fill="#faefe5" stroke="#a8501c" stroke-width="2.4"/>
<rect x="140.262" y="779.657" width="50.7" height="39.6" rx="2.81667" fill="#faefe5" stroke="#a8501c" stroke-width="2.4"/>
<line x1="124.771" y1="796.629" x2="139.558" y2="796.629" stroke="#a8501c" stroke-width="2.4"/>
<line x1="146.6" y1="789.086" x2="181.808" y2="789.086" stroke="#a8501c" stroke-width="2.4"/>
<line x1="146.6" y1="795.371" x2="176.879" y2="795.371" stroke="#a8501c" stroke-width="2.4"/>
<line x1="152.233" y1="806.686" x2="179.696" y2="806.686" stroke="#a8501c" stroke-width="2.4"/>
<line x1="179.696" y1="806.686" x2="175.628" y2="809.17" stroke="#a8501c" stroke-width="2.4"/>
<line x1="179.696" y1="806.686" x2="175.628" y2="804.201" stroke="#a8501c" stroke-width="2.4"/>
<text x="26" y="862" fill="#17232e" font-family="Arial, Helvetica, sans-serif" font-size="19" font-weight="700">
<tspan x="26" dy="0">Recommendations</tspan>
<tspan x="26" dy="23">and guidance</tspan>
</text>
<a href="../../design-space-atlas.html#FC-C13" target="_top" aria-label="Recommendations and guidance"><rect x="24" y="747" width="177.6" height="149" fill="transparent" pointer-events="all"/></a>
</g>
<g data-category="FC-C14" data-schematic="check" role="group" aria-label="Feedback and checking">
<title>What basis is provided for judging the work?</title>
<rect x="219.6" y="748" width="177.6" height="145" rx="7" fill="#fdfcfb" stroke="#c8d1d9" stroke-width="0.8"/>
<rect x="229.533" y="764.571" width="50.7" height="62.2286" rx="2.81667" fill="#ffffff" stroke="#9ba7ab" stroke-width="1.5"/>
<line x1="236.575" y1="775.257" x2="273.192" y2="775.257" stroke="#9ba7ab" stroke-width="1.5"/>
<line x1="236.575" y1="781.543" x2="261.925" y2="781.543" stroke="#9ba7ab" stroke-width="1.5"/>
<rect x="237.279" y="794.743" width="34.5042" height="13.8286" rx="2.81667" fill="#ffffff" stroke="#9ba7ab" stroke-width="1.5"/>
<line x1="286.571" y1="794.743" x2="307.696" y2="794.743" stroke="#a8501c" stroke-width="2.4"/>
<line x1="307.696" y1="794.743" x2="303.628" y2="797.227" stroke="#a8501c" stroke-width="2.4"/>
<line x1="307.696" y1="794.743" x2="303.628" y2="792.258" stroke="#a8501c" stroke-width="2.4"/>
<rect x="314.737" y="760.171" width="71.825" height="68.5143" rx="2.81667" fill="#ffffff" stroke="#9ba7ab" stroke-width="1.5"/>
<rect x="321.779" y="768.971" width="11.9708" height="10.6857" rx="2.81667" fill="#faefe5" stroke="#a8501c" stroke-width="2.4"/>
<line x1="340.792" y1="774" x2="378.112" y2="774" stroke="#9ba7ab" stroke-width="1.5"/>
<rect x="321.779" y="787.829" width="11.9708" height="10.6857" rx="2.81667" fill="#faefe5" stroke="#a8501c" stroke-width="2.4"/>
<line x1="340.792" y1="792.857" x2="378.112" y2="792.857" stroke="#9ba7ab" stroke-width="1.5"/>
<rect x="321.779" y="806.686" width="11.9708" height="10.6857" rx="2.81667" fill="#faefe5" stroke="#a8501c" stroke-width="2.4"/>
<line x1="340.792" y1="811.714" x2="378.112" y2="811.714" stroke="#9ba7ab" stroke-width="1.5"/>
<line x1="323.188" y1="773.371" x2="326.004" y2="775.886" stroke="#a8501c" stroke-width="2.4"/>
<line x1="326.004" y1="775.886" x2="331.637" y2="768.971" stroke="#a8501c" stroke-width="2.4"/>
<line x1="323.892" y1="789.086" x2="331.637" y2="796" stroke="#a8501c" stroke-width="2.4"/>
<line x1="323.892" y1="796" x2="331.637" y2="789.086" stroke="#a8501c" stroke-width="2.4"/>
<line x1="323.188" y1="811.086" x2="326.004" y2="813.6" stroke="#a8501c" stroke-width="2.4"/>
<line x1="326.004" y1="813.6" x2="331.637" y2="806.686" stroke="#a8501c" stroke-width="2.4"/>
<text x="221.6" y="862" fill="#17232e" font-family="Arial, Helvetica, sans-serif" font-size="19" font-weight="700">
<tspan x="221.6" dy="0">Feedback and</tspan>
<tspan x="221.6" dy="23">checking</tspan>
</text>
<a href="../../design-space-atlas.html#FC-C14" target="_top" aria-label="Feedback and checking"><rect x="219.6" y="747" width="177.6" height="149" fill="transparent" pointer-events="all"/></a>
</g>
<g data-category="FC-C15" data-schematic="pace" role="group" aria-label="Instruction and paced help">
<title>What help is available, and when is it available?</title>
<rect x="415.2" y="748" width="177.6" height="145" rx="7" fill="#fdfcfb" stroke="#c8d1d9" stroke-width="0.8"/>
<rect x="426.542" y="758.286" width="154.917" height="70.4" rx="2.81667" fill="#ffffff" stroke="#9ba7ab" stroke-width="1.5"/>
<line x1="433.583" y1="768.971" x2="574.417" y2="768.971" stroke="#9ba7ab" stroke-width="1.5"/>
<line x1="433.583" y1="775.257" x2="563.15" y2="775.257" stroke="#9ba7ab" stroke-width="1.5"/>
<rect x="434.992" y="782.171" width="137.312" height="17.6" rx="2.81667" fill="#faefe5" stroke="#a8501c" stroke-width="2.4"/>
<line x1="442.738" y1="788.457" x2="557.517" y2="788.457" stroke="#a8501c" stroke-width="2.4"/>
<line x1="442.738" y1="794.114" x2="537.096" y2="794.114" stroke="#a8501c" stroke-width="2.4"/>
<rect x="434.992" y="806.686" width="65.4875" height="14.4571" rx="2.81667" fill="#ffffff" stroke="#9ba7ab" stroke-width="1.5"/>
<rect x="507.521" y="806.686" width="64.7833" height="14.4571" rx="2.81667" fill="#ffffff" stroke="#9ba7ab" stroke-width="1.5"/>
<line x1="444.146" y1="813.6" x2="476.538" y2="813.6" stroke="#9ba7ab" stroke-width="1.5"/>
<line x1="486.396" y1="811.086" x2="486.396" y2="816.743" stroke="#9ba7ab" stroke-width="1.5"/>
<line x1="482.875" y1="813.6" x2="489.917" y2="813.6" stroke="#9ba7ab" stroke-width="1.5"/>
<line x1="516.675" y1="813.6" x2="543.433" y2="813.6" stroke="#9ba7ab" stroke-width="1.5"/>
<line x1="558.925" y1="811.086" x2="558.925" y2="816.743" stroke="#9ba7ab" stroke-width="1.5"/>
<line x1="555.404" y1="813.6" x2="562.446" y2="813.6" stroke="#9ba7ab" stroke-width="1.5"/>
<text x="417.2" y="862" fill="#17232e" font-family="Arial, Helvetica, sans-serif" font-size="19" font-weight="700">
<tspan x="417.2" dy="0">Instruction and</tspan>
<tspan x="417.2" dy="23">paced help</tspan>
</text>
<a href="../../design-space-atlas.html#FC-C15" target="_top" aria-label="Instruction and paced help"><rect x="415.2" y="747" width="177.6" height="149" fill="transparent" pointer-events="all"/></a>
</g>
<g data-category="FC-C16" data-schematic="workflow" role="group" aria-label="Structuring the workflow">
<title>How are stages, responsibilities and continuity arranged?</title>
<rect x="610.8" y="748" width="177.6" height="145" rx="7" fill="#fdfcfb" stroke="#c8d1d9" stroke-width="0.8"/>
<rect x="621.437" y="771.486" width="43.6583" height="32.6857" rx="2.81667" fill="#ffffff" stroke="#9ba7ab" stroke-width="1.5"/>
<line x1="629.183" y1="781.543" x2="654.533" y2="781.543" stroke="#9ba7ab" stroke-width="1.5"/>
<line x1="629.183" y1="792.229" x2="654.533" y2="792.229" stroke="#9ba7ab" stroke-width="1.5"/>
<line x1="667.208" y1="787.829" x2="675.658" y2="787.829" stroke="#a8501c" stroke-width="2.4"/>
<line x1="675.658" y1="787.829" x2="671.59" y2="790.313" stroke="#a8501c" stroke-width="2.4"/>
<line x1="675.658" y1="787.829" x2="671.59" y2="785.344" stroke="#a8501c" stroke-width="2.4"/>
<rect x="677.771" y="771.486" width="43.6583" height="32.6857" rx="2.81667" fill="#faefe5" stroke="#a8501c" stroke-width="2.4"/>
<line x1="685.517" y1="781.543" x2="710.867" y2="781.543" stroke="#a8501c" stroke-width="2.4"/>
<line x1="685.517" y1="792.229" x2="710.867" y2="792.229" stroke="#a8501c" stroke-width="2.4"/>
<line x1="723.542" y1="787.829" x2="731.992" y2="787.829" stroke="#a8501c" stroke-width="2.4"/>
<line x1="731.992" y1="787.829" x2="727.923" y2="790.313" stroke="#a8501c" stroke-width="2.4"/>
<line x1="731.992" y1="787.829" x2="727.923" y2="785.344" stroke="#a8501c" stroke-width="2.4"/>
<rect x="734.104" y="771.486" width="43.6583" height="32.6857" rx="2.81667" fill="#ffffff" stroke="#9ba7ab" stroke-width="1.5"/>
<line x1="741.85" y1="781.543" x2="767.2" y2="781.543" stroke="#9ba7ab" stroke-width="1.5"/>
<line x1="741.85" y1="792.229" x2="767.2" y2="792.229" stroke="#9ba7ab" stroke-width="1.5"/>
<line x1="756.637" y1="807.943" x2="756.637" y2="820.514" stroke="#a8501c" stroke-width="2.4"/>
<line x1="756.637" y1="820.514" x2="643.267" y2="820.514" stroke="#a8501c" stroke-width="2.4"/>
<line x1="643.267" y1="820.514" x2="643.267" y2="806.686" stroke="#a8501c" stroke-width="2.4"/>
<line x1="643.267" y1="806.686" x2="646.05" y2="810.317" stroke="#a8501c" stroke-width="2.4"/>
<line x1="643.267" y1="806.686" x2="640.483" y2="810.317" stroke="#a8501c" stroke-width="2.4"/>
<text x="612.8" y="862" fill="#17232e" font-family="Arial, Helvetica, sans-serif" font-size="19" font-weight="700">
<tspan x="612.8" dy="0">Structuring the</tspan>
<tspan x="612.8" dy="23">workflow</tspan>
</text>
<a href="../../design-space-atlas.html#FC-C16" target="_top" aria-label="Structuring the workflow"><rect x="610.8" y="747" width="177.6" height="149" fill="transparent" pointer-events="all"/></a>
</g>
<g data-category="FC-C17" data-schematic="reflect" role="group" aria-label="Questions and reflection prompts">
<title>Which part of a person&#x27;s thinking is elicited?</title>
<rect x="806.4" y="748" width="177.6" height="145" rx="7" fill="#fdfcfb" stroke="#c8d1d9" stroke-width="0.8"/>
<rect x="817.037" y="758.914" width="156.325" height="70.4" rx="2.81667" fill="#ffffff" stroke="#9ba7ab" stroke-width="1.5"/>
<rect x="826.192" y="767.714" width="136.608" height="19.4857" rx="2.81667" fill="#faefe5" stroke="#a8501c" stroke-width="2.4"/>
<text x="833.233" y="782.171" fill="#a8501c" font-family="Arial, Helvetica, sans-serif" font-size="19" font-weight="700">
<tspan x="833.233" dy="0">?</tspan>
</text>
<line x1="854.358" y1="775.257" x2="950.829" y2="775.257" stroke="#a8501c" stroke-width="2.4"/>
<line x1="854.358" y1="781.543" x2="932.521" y2="781.543" stroke="#a8501c" stroke-width="2.4"/>
<rect x="826.192" y="795.371" width="136.608" height="25.7714" rx="2.81667" fill="#ffffff" stroke="#9ba7ab" stroke-width="1.5"/>
<line x1="834.642" y1="805.429" x2="915.621" y2="805.429" stroke="#9ba7ab" stroke-width="1.5"/>
<line x1="834.642" y1="814.229" x2="834.642" y2="801.029" stroke="#a8501c" stroke-width="2.4"/>
<text x="808.4" y="862" fill="#17232e" font-family="Arial, Helvetica, sans-serif" font-size="19" font-weight="700">
<tspan x="808.4" dy="0">Questions and</tspan>
<tspan x="808.4" dy="23">reflection prompts</tspan>
</text>
<a href="../../design-space-atlas.html#FC-C17" target="_top" aria-label="Questions and reflection prompts"><rect x="806.4" y="747" width="177.6" height="149" fill="transparent" pointer-events="all"/></a>
</g>
<a href="../../design-space-atlas.html#FC-A4" target="_top" aria-label="Guidance and feedback"><rect x="24" y="704" width="960" height="36" fill="transparent" pointer-events="all"/></a>
</g>
<g data-family="FC-A5" role="group" aria-label="Collaboration and perspective">
<text x="24" y="931" fill="#17232e" font-family="Arial, Helvetica, sans-serif" font-size="23" font-weight="700">
<tspan x="24" dy="0">Collaboration and perspective</tspan>
</text>
<text x="440" y="930" fill="#566574" font-family="Arial, Helvetica, sans-serif" font-size="19" font-weight="400">
<tspan x="440" dy="0">How can people share work and perspectives?</tspan>
</text>
<line x1="24" y1="945" x2="984" y2="945" stroke="#c8d1d9" stroke-width="1.2"/>
<line x1="24" y1="945" x2="94" y2="945" stroke="#a8501c" stroke-width="2.4"/>
<g data-category="FC-C18" data-schematic="collaborate" role="group" aria-label="Shared views and perspectives">
<title>How do contributions and viewpoints become shared?</title>
<rect x="86.8417" y="961.914" width="90.1333" height="69.7714" rx="2.81667" fill="#ffffff" stroke="#9ba7ab" stroke-width="1.5"/>
<line x1="93.8833" y1="972.6" x2="169.933" y2="972.6" stroke="#9ba7ab" stroke-width="1.5"/>
<line x1="93.8833" y1="978.886" x2="158.667" y2="978.886" stroke="#9ba7ab" stroke-width="1.5"/>
<rect x="95.9958" y="995.857" width="71.1208" height="15.7143" rx="2.81667" fill="#faefe5" stroke="#a8501c" stroke-width="2.4"/>
<rect x="51.6333" y="970.086" width="27.4625" height="24.5143" rx="2.81667" fill="#faefe5" stroke="#a8501c" stroke-width="2.4"/>
<line x1="79.0958" y1="982.029" x2="86.8417" y2="982.029" stroke="#a8501c" stroke-width="2.4"/>
<rect x="184.721" y="1000.89" width="24.6458" height="24.5143" rx="2.81667" fill="#faefe5" stroke="#a8501c" stroke-width="2.4"/>
<line x1="176.975" y1="1012.83" x2="184.721" y2="1012.83" stroke="#a8501c" stroke-width="2.4"/>
<line x1="116.417" y1="1004.03" x2="119.938" y2="1014.71" stroke="#a8501c" stroke-width="2.4"/>
<line x1="119.938" y1="1014.71" x2="122.754" y2="1010.94" stroke="#a8501c" stroke-width="2.4"/>
<line x1="122.754" y1="1010.94" x2="128.387" y2="1009.69" stroke="#a8501c" stroke-width="2.4"/>
<line x1="128.387" y1="1009.69" x2="116.417" y2="1004.03" stroke="#a8501c" stroke-width="2.4"/>
<line x1="157.963" y1="982.029" x2="161.483" y2="992.714" stroke="#a8501c" stroke-width="2.4"/>
<line x1="161.483" y1="992.714" x2="164.3" y2="988.943" stroke="#a8501c" stroke-width="2.4"/>
<line x1="164.3" y1="988.943" x2="169.933" y2="987.686" stroke="#a8501c" stroke-width="2.4"/>
<line x1="169.933" y1="987.686" x2="157.963" y2="982.029" stroke="#a8501c" stroke-width="2.4"/>
<line x1="58.675" y1="977" x2="72.0542" y2="977" stroke="#a8501c" stroke-width="2.4"/>
<line x1="58.675" y1="983.286" x2="67.8292" y2="983.286" stroke="#a8501c" stroke-width="2.4"/>
<line x1="192.467" y1="1008.43" x2="205.846" y2="1008.43" stroke="#a8501c" stroke-width="2.4"/>
<line x1="192.467" y1="1014.71" x2="201.621" y2="1014.71" stroke="#a8501c" stroke-width="2.4"/>
<text x="280" y="998" fill="#17232e" font-family="Arial, Helvetica, sans-serif" font-size="19" font-weight="700">
<tspan x="280" dy="0">Shared views and perspectives</tspan>
</text>
<rect x="644" y="975" width="20" height="20" rx="3" fill="#faefe5" stroke="#a8501c" stroke-width="2.4"/>
<text x="676" y="992" fill="#566574" font-family="Arial, Helvetica, sans-serif" font-size="19" font-weight="400">
<tspan x="676" dy="0">Highlighted operation</tspan>
</text>
<text x="644" y="1025" fill="#566574" font-family="Arial, Helvetica, sans-serif" font-size="19" font-weight="400">
<tspan x="644" dy="0">Conceptual interface schematics</tspan>
</text>
<a href="../../design-space-atlas.html#FC-C18" target="_top" aria-label="Shared views and perspectives"><rect x="24" y="951" width="590" height="106" fill="transparent" pointer-events="all"/></a>
</g>
<a href="../../design-space-atlas.html#FC-A5" target="_top" aria-label="Collaboration and perspective"><rect x="24" y="908" width="960" height="36" fill="transparent" pointer-events="all"/></a>
</g></svg>
